<svg width="625" height="503" viewBox="0 0 625 503" fill="none" xmlns="http://www.w3.org/2000/svg">
<path d="M238 0H0V502.5H520C552.5 502.5 582 484 582 446C582 408 546.5 397.5 520 397.5H227.5C200.167 397.5 156 390.5 156 362.5C156 334.5 200.167 334 227.5 332H538C590.5 332 625 314 625 283.5C625 253 606 228.5 538 228.5H117.5C38.5 228.5 48.5 189 48.5 189C48.5 189 43.5 147 117.5 147H238C286 147 355 143.6 355 76C355 8.4 302.5 0 238 0Z" fill="url(#paint0_linear_2_3)" fill-opacity="0.5"/>
<defs>
<linearGradient id="paint0_linear_2_3" x1="319" y1="-129" x2="319" y2="373.5" gradientUnits="userSpaceOnUse">
<stop stop-color="#7FDBE8"/>
<stop offset="1" stop-color="#AF9BFF"/>
</linearGradient>
</defs>
</svg>
